<?xml version="1.0" standalone="no"?>
 <!DOCTYPE svg PUBLIC "-//W3C//DTD SVG 1.1//EN" 
 "http://www.w3.org/Graphics/SVG/1.1/DTD/svg11.dtd"> 
<svg
  xmlns:svg="http://www.w3.org/2000/svg"
  xmlns="http://www.w3.org/2000/svg"
  xmlns:xlink="http://www.w3.org/1999/xlink"
  version="1.1"
  width="4.371340cm" height="6.901180cm" viewBox="0 0 17210 27170">
<title>SVG Picture created as 20210211_eduino-brd.svg date 2021/11/14 19:08:35 </title>
  <desc>Picture generated by PCBNEW </desc>
<g style="fill:#000000; fill-opacity:1;stroke:#000000; stroke-opacity:1;
stroke-linecap:round; stroke-linejoin:round;"
 transform="translate(0 0) scale(1 1)">
</g>
<g style="fill:#000000; fill-opacity:0.0; 
stroke:#000000; stroke-width:-0.000393701; stroke-opacity:1; 
stroke-linecap:round; stroke-linejoin:round;">
</g>
<g style="fill:#000000; fill-opacity:0.0; 
stroke:#000000; stroke-width:19.685; stroke-opacity:1; 
stroke-linecap:round; stroke-linejoin:round;">
<path d="M257 18503
L257 18378
" />
<path d="M1957 18503
L257 18503
" />
<path d="M257 3028
L257 18378
" />
<path d="M1957 3028
L257 3028
" />
<path d="M4257 20453
L9657 20453
" />
<path d="M9657 18503
L9657 20453
" />
<path d="M12257 18503
L9657 18503
" />
<path d="M4257 18503
L4257 20453
" />
<path d="M2007 18503
L4257 18503
" />
<path d="M12257 18503
L12257 16828
" />
<path d="M12257 3028
L12257 16828
" />
<path d="M7707 3028
L12257 3028
" />
<path d="M1957 3028
L7707 3028
" />
<path d="M2007 18503
L1957 18503
" />
<g >
</g>
<g >
</g>
<g >
</g>
<g >
</g>
<g >
</g>
<g >
</g>
<g >
</g>
<g >
</g>
<g >
</g>
<g >
</g>
<g >
</g>
<g >
</g>
<g >
</g>
<g >
</g>
<g >
</g>
<g >
</g>
<g >
</g>
<g >
</g>
</g> 
</svg>
